<svg width="100" height="100" viewBox="0 0 100 100" fill="none" xmlns="http://www.w3.org/2000/svg">
<rect width="100" height="100" fill="#EDEEF0"/>
<path d="M70 26H30C27.7909 26 26 27.7909 26 30V70C26 72.2092 27.7909 74 30 74H70C72.2092 74 74 72.2092 74 70V30C74 27.7909 72.2092 26 70 26Z" stroke="#C0BFCC" stroke-width="2" stroke-linecap="round" stroke-linejoin="round"/>
<path d="M42.0007 48.6668C45.6825 48.6668 48.6673 45.682 48.6673 42.0002C48.6673 38.3183 45.6825 35.3335 42.0007 35.3335C38.3188 35.3335 35.334 38.3183 35.334 42.0002C35.334 45.682 38.3188 48.6668 42.0007 48.6668Z" stroke="#C0BFCC" stroke-width="2" stroke-linecap="round" stroke-linejoin="round"/>
<path d="M74 65.9998L59.3333 52.6665L46 64.6665L36.6667 56.6665L26 64.6665" stroke="#C0BFCC" stroke-width="2" stroke-linecap="round" stroke-linejoin="round"/>
</svg>
