<svg width="18" height="18" viewBox="0 0 18 18" fill="none" xmlns="http://www.w3.org/2000/svg">
<path fill-rule="evenodd" clip-rule="evenodd" d="M9.00038 5.36272C6.24093 5.36272 3.91033 7.09475 3.28432 9.40555C3.27595 9.43646 3.27175 9.4682 3.27175 9.49994C3.27175 9.53167 3.27595 9.56335 3.28432 9.59432C3.91032 11.9051 6.24093 13.6371 9.00038 13.6371C11.7599 13.6371 14.0904 11.9051 14.7164 9.59432C14.7248 9.56341 14.729 9.53167 14.729 9.49994C14.729 9.4682 14.7248 9.43652 14.7164 9.40555C14.0904 7.09476 11.7599 5.36272 9.00038 5.36272ZM2.05107 9.11695C2.82181 6.27187 5.6682 4.18066 9.00038 4.18066C12.3326 4.18066 15.179 6.27188 15.9497 9.11695C15.9838 9.24266 16.0008 9.37133 16.0008 9.49994C16.0008 9.62854 15.9838 9.75721 15.9497 9.88292C15.179 12.728 12.3326 14.8192 9.00038 14.8192C5.6682 14.8192 2.82179 12.728 2.05107 9.88292C2.01702 9.75721 2 9.62854 2 9.49994C2 9.37133 2.01701 9.24266 2.05107 9.11695Z" fill="#C0BFCC"/>
<path fill-rule="evenodd" clip-rule="evenodd" d="M9.00035 6.54443C7.24299 6.54443 5.81836 7.8675 5.81836 9.49958C5.81836 11.1317 7.24299 12.4547 9.00035 12.4547C10.7577 12.4547 12.1823 11.1317 12.1823 9.49958C12.1823 7.8675 10.7577 6.54443 9.00035 6.54443ZM9.00035 11.2727C10.0548 11.2727 10.9095 10.4789 10.9095 9.49958C10.9095 8.52031 10.0548 7.72649 9.00035 7.72649C7.9459 7.72649 7.09116 8.52031 7.09116 9.49958C7.09116 10.4789 7.9459 11.2727 9.00035 11.2727Z" fill="#C0BFCC"/>
</svg>
