<svg width="18" height="18" viewBox="0 0 18 18" fill="none" xmlns="http://www.w3.org/2000/svg">
<path fill-rule="evenodd" clip-rule="evenodd" d="M2.1864 3.17164C2.43493 2.94083 2.83787 2.94083 3.0864 3.17164L15.8144 14.9923C16.0629 15.223 16.0629 15.5973 15.8144 15.8281C15.5659 16.0589 15.1629 16.0589 14.9144 15.8281L2.1864 4.00749C1.93787 3.77667 1.93787 3.40246 2.1864 3.17164Z" fill="#C0BFCC"/>
<path fill-rule="evenodd" clip-rule="evenodd" d="M7.84927 5.4653C8.22092 5.39808 8.60581 5.36272 9.00038 5.36272C11.7615 5.36272 14.0887 7.09416 14.7154 9.40561C14.7238 9.43652 14.728 9.4682 14.728 9.49994C14.728 9.53167 14.7238 9.56335 14.7154 9.59426C14.5868 10.0688 14.3581 10.531 14.0774 10.9726C13.8988 11.2537 13.9994 11.6161 14.302 11.782C14.6047 11.9479 14.9949 11.8545 15.1736 11.5734C15.4952 11.0673 15.7827 10.4988 15.9497 9.88286C15.9838 9.75721 16.0008 9.62854 16.0008 9.49994C16.0008 9.37127 15.9837 9.24266 15.9497 9.11695C15.1785 6.27248 12.336 4.18066 9.00038 4.18066C8.52372 4.18066 8.05743 4.22338 7.60594 4.30504C7.26095 4.36744 7.03574 4.67775 7.10292 4.99815C7.17011 5.31855 7.50425 5.5277 7.84927 5.4653ZM4.19763 5.8754C3.17191 6.72303 2.39672 7.84218 2.05111 9.11689C2.01702 9.24266 2 9.37127 2 9.49994C2 9.62854 2.01703 9.75721 2.05112 9.88292C2.82231 12.7274 5.66477 14.8192 9.00038 14.8192C10.3831 14.8192 11.6759 14.4598 12.7704 13.837L11.839 12.972C10.9989 13.3956 10.0316 13.6371 9.00038 13.6371C6.23933 13.6371 3.91206 11.9057 3.28538 9.59426C3.277 9.56335 3.2728 9.53161 3.2728 9.49988C3.2728 9.46814 3.277 9.43646 3.28538 9.40555C3.57013 8.35529 4.22219 7.42009 5.09946 6.71294L4.19763 5.8754ZM6.34563 7.87028C6.01265 8.33744 5.81839 8.89803 5.81839 9.49988C5.81839 11.132 7.24302 12.455 9.00038 12.455C9.64843 12.455 10.2521 12.2746 10.7551 11.9654L9.82363 11.1003C9.57448 11.2111 9.29548 11.273 9.00038 11.273C7.94593 11.273 7.09119 10.4792 7.09119 9.49988C7.09119 9.22582 7.15784 8.96677 7.27712 8.73538L6.34563 7.87028Z" fill="#C0BFCC"/>
</svg>
