<svg width="14" height="14" viewBox="0 0 14 14" fill="none" xmlns="http://www.w3.org/2000/svg">
<path fill-rule="evenodd" clip-rule="evenodd" d="M7 14C10.866 14 14 10.866 14 7C14 3.13401 10.866 0 7 0C3.13401 0 0 3.13401 0 7C0 10.866 3.13401 14 7 14ZM6.33862 7.52316C6.22241 7.80685 6.16431 8.18796 6.16431 8.66647H7.47681L7.49731 8.35373C7.53491 8.01877 7.68359 7.72653 7.94336 7.47702L8.35864 7.08224C8.68335 6.76779 8.91064 6.48239 9.04053 6.22604C9.17041 5.96628 9.23535 5.69113 9.23535 5.4006C9.23535 4.76144 9.0354 4.26755 8.6355 3.91891C8.2356 3.56686 7.67334 3.39084 6.94873 3.39084C6.23096 3.39084 5.66357 3.57541 5.24658 3.94455C4.83301 4.31369 4.6228 4.82468 4.61597 5.47751H6.10278C6.10962 5.20407 6.18823 4.99045 6.33862 4.83664C6.49243 4.67941 6.6958 4.6008 6.94873 4.6008C7.48193 4.6008 7.74854 4.88962 7.74854 5.46725C7.74854 5.65866 7.69727 5.84152 7.59473 6.01584C7.49219 6.18674 7.2854 6.41061 6.97437 6.68747C6.66675 6.96091 6.45483 7.23947 6.33862 7.52316ZM6.24634 9.67648C6.09253 9.82346 6.01562 10.0114 6.01562 10.2404C6.01562 10.466 6.09082 10.6523 6.24121 10.7993C6.39502 10.9463 6.59668 11.0197 6.84619 11.0197C7.0957 11.0197 7.29565 10.9463 7.44604 10.7993C7.59985 10.6523 7.67676 10.466 7.67676 10.2404C7.67676 10.0114 7.59814 9.82346 7.44092 9.67648C7.28711 9.52609 7.08887 9.4509 6.84619 9.4509C6.60352 9.4509 6.40356 9.52609 6.24634 9.67648Z" fill="#8F8E98"/>
</svg>
