<svg width="535" height="51" viewBox="0 0 535 51" fill="none" xmlns="http://www.w3.org/2000/svg">
<path d="M109.811 0.0423339C109.811 4.32408 109.839 8.29595 109.783 12.296C109.755 13.2819 110.006 13.5636 111.011 13.5355C114.556 13.4791 118.073 13.4509 121.618 13.5355C122.734 13.5636 122.929 13.1693 122.901 12.1552C122.846 9.84527 122.874 7.56355 122.874 5.25366C122.874 4.80295 122.818 4.35224 123.348 4.04238C125.665 2.77476 127.981 1.47897 130.326 0.155011C130.717 0.63389 130.577 1.11277 130.577 1.56348C130.577 5.14099 130.633 8.69032 130.549 12.2678C130.521 13.2819 130.856 13.5355 131.805 13.5073C134.038 13.4509 136.271 13.5073 138.504 13.4791C139.202 13.4791 139.481 13.6481 139.481 14.4087C139.425 16.2397 139.425 18.0707 139.481 19.9017C139.509 20.8313 139.118 20.9722 138.337 20.9722C136.16 20.944 133.955 21.0003 131.777 20.944C130.912 20.9158 130.549 21.113 130.549 22.0989C130.605 26.6905 130.521 31.3103 130.577 35.9019C130.633 40.2963 132.81 42.5781 137.192 42.7189C138.504 42.7471 138.728 43.1696 138.672 44.3246C138.588 45.9584 138.644 47.6204 138.644 49.2542C138.644 49.7049 138.755 50.212 138.002 50.212C135.434 50.1838 132.894 50.2965 130.41 49.5077C125.888 48.0429 123.125 44.2682 122.985 38.8879C122.846 33.3949 122.874 27.9018 122.929 22.4088C122.929 21.1975 122.567 20.9158 121.45 20.944C117.961 21.0285 114.472 21.0003 110.983 20.944C110.062 20.944 109.811 21.2257 109.839 22.1271C109.895 26.6342 109.839 31.1413 109.867 35.6484C109.867 40.2963 112.044 42.6062 116.649 42.7189C117.794 42.7471 118.017 43.1133 117.989 44.1555C117.905 45.8457 117.961 47.5359 117.961 49.226C117.961 49.6767 118.101 50.1838 117.347 50.1838C114.472 50.1838 111.569 50.2965 108.834 49.1697C104.787 47.5077 102.917 44.24 102.386 40.0428C102.219 38.6907 102.163 37.3386 102.163 35.9583C102.135 31.6765 102.163 27.4229 102.163 23.1412C102.163 20.944 102.163 20.8313 99.9579 20.9722C98.5064 21.0567 98.1157 20.606 98.2273 19.1975C98.3669 17.6482 98.2832 16.0989 98.2552 14.5496C98.2273 13.789 98.3948 13.4509 99.2322 13.4791C100.181 13.5073 101.493 13.958 102.023 13.2538C102.498 12.6059 102.191 11.3664 102.191 10.3805C102.191 8.69033 102.191 7.00016 102.191 5.31C102.191 4.85929 102.107 4.40858 102.637 4.09872C104.87 2.8311 107.215 1.50714 109.811 0.0423339Z" fill="#262626"/>
<path d="M346.476 50.1831C343.657 50.1831 340.922 50.1549 338.186 50.2112C337.516 50.2112 337.209 49.8169 336.875 49.3662C333.637 45.0844 330.371 40.8027 327.133 36.5209C326.631 35.8449 326.408 35.704 325.71 36.4083C324.314 37.7886 323.7 39.2534 323.868 41.2534C324.063 43.8731 323.868 46.4929 323.923 49.1408C323.951 50.0141 323.672 50.2676 322.835 50.2394C320.965 50.1831 319.123 50.1549 317.252 50.2394C316.276 50.2676 316.108 49.9014 316.108 49.0281C316.136 33.1124 316.136 17.2249 316.108 1.30924C316.108 0.182465 316.471 -0.0147204 317.476 0.0416183C319.206 0.126126 320.909 0.126126 322.639 0.0416183C323.672 -0.0147204 323.951 0.266973 323.951 1.33741C323.895 9.59103 323.923 17.8446 323.923 26.0983C323.923 26.549 323.923 27.0279 323.923 27.7884C324.454 27.225 324.844 26.8588 325.179 26.4363C328.668 22.4081 332.157 18.3799 335.618 14.3517C336.121 13.7601 336.623 13.5066 337.377 13.5347C340.084 13.5911 342.82 13.5629 345.834 13.5629C343.685 16.0136 341.731 18.2672 339.777 20.4926C337.209 23.4222 334.669 26.3518 332.074 29.2251C331.488 29.873 331.543 30.2955 332.046 30.9716C336.651 36.9716 341.257 42.9999 345.834 49.0281C346.058 49.2816 346.448 49.5352 346.476 50.1831Z" fill="#262626"/>
<path d="M32.16 25.1126C32.16 17.197 32.188 9.25327 32.1321 1.33768C32.1321 0.267249 32.3833 -0.0426134 33.444 0.0137253C35.0629 0.0982334 36.7097 0.126403 38.3286 0.0137253C39.5009 -0.0707827 39.9196 0.210911 39.8917 1.53487C39.8079 5.33773 39.8917 9.14059 39.8358 12.9435C39.8358 13.9576 39.9475 14.2392 41.036 13.8449C45.1391 12.4646 49.2421 12.3237 53.2894 14.0702C57.9786 16.0703 60.5465 19.7886 60.6581 24.8873C60.8256 33 60.7139 41.1128 60.7419 49.2256C60.7419 50.0425 60.4906 50.2678 59.7091 50.2397C57.8948 50.1833 56.0806 50.1552 54.2663 50.2397C53.1777 50.296 52.9544 49.9017 52.9823 48.8876C53.0382 41.8452 53.0103 34.8029 53.0103 27.7887C53.0103 27 52.9823 26.1831 52.8986 25.3943C52.5637 22.4365 50.4703 20.4083 47.3162 20.0703C45.1949 19.8449 43.1573 20.1266 41.1477 20.8872C40.1987 21.2534 39.8358 21.7886 39.8358 22.8591C39.8917 31.4789 39.8358 40.1269 39.8917 48.7467C39.8917 49.8735 39.6684 50.3242 38.4681 50.2397C36.7934 50.127 35.1187 50.127 33.444 50.2397C32.3833 50.296 32.1321 49.958 32.1321 48.9157C32.16 40.972 32.16 33.0282 32.16 25.1126Z" fill="#262626"/>
<path d="M161.085 35.4222C157.959 35.4222 154.861 35.4503 151.735 35.394C150.897 35.394 150.618 35.5912 150.646 36.4926C150.73 40.2673 151.818 42.211 154.498 43.0842C157.82 44.1547 161.588 43.1124 163.43 40.4927C163.96 39.7321 164.295 39.6758 165.021 40.1546C166.5 41.1406 168.007 42.0702 169.57 42.8871C170.464 43.3659 170.464 43.8166 169.933 44.6054C168.175 47.3096 165.719 49.0843 162.704 50.0421C158.88 51.2815 155 51.197 151.204 49.9576C146.236 48.3237 143.166 44.1829 143.026 38.887C142.915 34.5208 142.97 30.1545 142.97 25.7883C142.998 18.7178 147.129 13.929 154.107 12.9712C157.903 12.4642 161.643 12.6895 165.077 14.5769C169.068 16.7741 171.217 20.2389 171.413 24.8023C171.552 27.9855 171.413 31.1686 171.468 34.3799C171.468 35.225 171.161 35.394 170.408 35.394C167.337 35.394 164.211 35.4222 161.085 35.4222ZM157.178 29.0559C158.378 29.0559 159.578 29.0559 160.806 29.0559C163.821 29.0559 163.821 29.0559 163.709 26.07C163.625 22.9432 161.978 20.9431 158.992 20.3797C157.568 20.1262 156.117 20.1262 154.721 20.5769C152.46 21.2812 151.121 22.8023 150.842 25.1685C150.73 26.1263 150.758 27.1404 150.674 28.0981C150.618 28.8587 150.925 29.0559 151.623 29.0559C153.465 29.0277 155.307 29.0559 157.178 29.0559Z" fill="#262626"/>
<path d="M93.957 30.8298C93.957 36.0975 93.929 41.337 93.9849 46.6047C93.9849 47.5343 93.7895 48.0413 92.8684 48.3794C87.2023 50.4639 81.4245 51.6752 75.3955 50.4639C69.227 49.2244 65.5705 45.0272 65.4589 38.6891C65.3193 30.6045 65.431 22.5481 65.3751 14.4635C65.3751 13.731 65.5705 13.5057 66.3241 13.5057C68.0826 13.562 69.869 13.5902 71.6274 13.5057C72.8276 13.4212 73.1905 13.731 73.1905 15.0268C73.1068 22.0128 73.1626 29.027 73.1626 36.013C73.1626 36.6609 73.1626 37.337 73.2184 37.9849C73.4138 41.1398 75.1722 43.2244 78.2425 43.9004C80.4755 44.4075 82.6526 44.2666 84.8577 43.5906C85.9462 43.2525 86.3649 42.7455 86.3649 41.506C86.3091 32.689 86.3649 23.8438 86.3091 15.0268C86.3091 13.7592 86.6161 13.4212 87.8442 13.5057C89.4073 13.6184 90.9983 13.6184 92.5893 13.5057C93.7057 13.4212 94.0965 13.731 94.0686 14.9423C93.929 20.21 93.957 25.534 93.957 30.8298Z" fill="#262626"/>
<path d="M15.0221 12.7743C19.9346 12.9996 23.2282 13.7039 26.3543 15.1123C27.1358 15.4785 27.387 15.8166 27.0242 16.6898C26.3543 18.2673 25.7682 19.9011 25.2099 21.5631C24.9308 22.4082 24.6238 22.6054 23.7585 22.211C20.7719 20.8307 17.6179 20.0701 14.2964 20.2673C13.2636 20.3237 12.2867 20.549 11.3377 21.0279C10.1375 21.6194 9.46759 22.549 9.46759 23.9012C9.46759 25.3096 10.0537 26.3519 11.3098 26.9435C13.2636 27.9012 15.4407 28.0421 17.5062 28.4364C19.488 28.8026 21.4139 29.2815 23.1723 30.2674C29.7596 33.9013 29.9549 43.7606 23.5352 48.155C21.079 49.8451 18.3436 50.6057 15.4128 50.8029C10.3887 51.1691 5.5041 50.5212 0.842808 48.493C0.089186 48.155 -0.245757 47.8733 0.200834 46.9719C0.982367 45.3662 1.65225 43.7324 2.29423 42.0704C2.60126 41.2253 2.9362 41.1971 3.71774 41.507C7.3742 43.0563 11.226 43.5915 15.1616 43.3662C16.1944 43.3098 17.1992 43.0845 18.1203 42.662C19.5159 42.0422 20.3532 40.9718 20.3812 39.3943C20.4091 37.8732 19.5717 36.8591 18.2598 36.2112C16.613 35.3943 14.7988 35.2252 13.0124 34.8872C11.3656 34.5773 9.7188 34.2957 8.15573 33.7041C4.75048 32.4083 2.37796 30.0984 1.81972 26.3519C1.17775 22.2955 2.12676 18.6898 5.5041 15.9856C8.74188 13.394 12.5379 12.7461 15.0221 12.7743Z" fill="#262626"/>
<path d="M211.829 12.8024C215.262 12.9714 218.528 13.732 221.682 15.1404C222.463 15.5066 222.575 15.8447 222.24 16.6052C221.57 18.2109 220.928 19.8165 220.398 21.4504C220.091 22.4081 219.784 22.549 218.863 22.1264C215.904 20.7743 212.806 20.0419 209.54 20.2109C208.452 20.2672 207.419 20.4926 206.47 20.9997C205.297 21.6194 204.655 22.549 204.655 23.9293C204.683 25.2814 205.27 26.2673 206.47 26.8589C207.949 27.6194 209.568 27.8166 211.159 28.0983C213.029 28.4082 214.899 28.7462 216.713 29.4223C220.537 30.8589 222.882 33.535 223.329 37.7041C223.775 41.8168 222.519 45.3098 219.142 47.845C216.63 49.7324 213.755 50.5211 210.684 50.7747C205.744 51.1409 200.971 50.493 196.338 48.6338C195.333 48.2394 194.97 47.7887 195.528 46.6901C196.254 45.2253 196.896 43.7041 197.454 42.183C197.789 41.3098 198.152 41.1971 198.989 41.5633C202.618 43.0844 206.414 43.6196 210.322 43.3943C211.41 43.3379 212.443 43.1126 213.42 42.6619C214.732 42.0422 215.541 41.0281 215.597 39.5069C215.653 37.9294 214.815 36.9717 213.532 36.2956C211.857 35.4224 209.959 35.2815 208.144 34.9435C206.581 34.6618 205.046 34.3801 203.539 33.8449C199.938 32.5491 197.538 30.1265 196.98 26.211C196.421 22.1828 197.398 18.6616 200.692 16.0418C203.958 13.3939 207.81 12.6897 211.829 12.8024Z" fill="#262626"/>
<path d="M291.741 31.8176C291.741 33.9867 291.629 36.1276 291.769 38.2966C291.936 40.9445 293.499 42.5783 296.067 43.1136C297.882 43.5079 299.668 43.3952 301.426 42.7755C302.878 42.2403 304.162 41.3952 304.748 39.9304C305.25 38.7191 305.753 38.6065 306.869 39.1135C308.349 39.8177 309.884 40.3248 311.419 40.86C312.228 41.1417 312.34 41.5361 312.033 42.3248C310.917 45.2544 309.046 47.5361 306.283 48.9446C301.203 51.5362 295.984 51.677 290.82 49.3672C286.466 47.4235 284.205 43.8178 284.037 39.0572C283.87 34.6627 283.981 30.2402 283.981 25.8176C284.009 19.0006 287.638 14.4653 294.309 13.1695C299.333 12.1836 304.134 12.8033 308.321 16.071C310.079 17.4513 311.251 19.2823 312.061 21.395C312.34 22.0992 312.256 22.4936 311.475 22.7471C309.688 23.395 307.902 24.0429 306.144 24.8035C305.474 25.0852 305.306 24.8316 305.055 24.2964C303.185 20.4372 297.128 19.0006 293.723 21.5922C292.55 22.4936 291.936 23.733 291.769 25.1978C291.49 27.4232 291.657 29.6204 291.741 31.8176Z" fill="#262626"/>
<path d="M230.084 30.4643C230.084 27.6474 230.056 24.8304 230.111 22.0135C230.111 21.2248 229.888 20.9712 229.107 20.9712C228.102 20.9712 226.734 21.4783 226.176 20.7177C225.673 20.0416 226.008 18.7459 225.98 17.7036C225.953 16.5768 226.008 15.45 225.98 14.3233C225.953 13.7317 226.176 13.45 226.79 13.5064C226.846 13.5064 226.874 13.5064 226.929 13.5064C227.934 13.45 229.302 13.9571 229.888 13.3092C230.586 12.5486 230.056 11.1683 230.111 10.0697C230.195 8.15418 229.442 5.87246 230.391 4.43582C231.312 3.05552 233.461 2.49214 235.108 1.59072C237.871 0.0414026 237.871 0.0414025 237.871 3.22454C237.871 6.26683 237.899 9.33729 237.843 12.3796C237.815 13.281 238.038 13.5909 238.987 13.5627C241.165 13.5064 243.37 13.5627 245.547 13.5345C246.384 13.5064 246.803 13.6754 246.775 14.6613C246.691 16.436 246.719 18.2388 246.775 20.0135C246.803 20.8304 246.496 21.0557 245.714 21.0557C243.481 21.0276 241.248 21.0839 239.015 21.0276C238.094 20.9994 237.843 21.3093 237.843 22.2107C237.871 26.8586 237.843 31.5066 237.871 36.1545C237.899 40.4081 240.076 42.6335 244.486 42.7743C245.798 42.8025 246.021 43.225 245.965 44.4081C245.882 46.042 245.937 47.7039 245.937 49.3378C245.937 49.8448 245.965 50.2674 245.24 50.2674C242.225 50.2674 239.183 50.38 236.336 49.0561C231.842 46.9434 230.363 42.9997 230.139 38.4081C230 35.732 230.111 33.0841 230.084 30.4643C230.111 30.4643 230.111 30.4643 230.084 30.4643Z" fill="#262626"/>
<path d="M176.437 36.634C176.437 33.0283 176.409 29.3945 176.437 25.7888C176.493 18.4929 181.098 13.5633 188.327 12.9154C190.002 12.7746 191.677 12.8027 193.351 12.9436C194.245 13.0281 194.663 13.3098 194.607 14.3239C194.524 16.0985 194.552 17.9014 194.607 19.6761C194.635 20.493 194.384 20.7183 193.575 20.6338C192.235 20.4648 190.923 20.2958 189.555 20.493C185.927 21.0282 184.168 23.0282 184.14 26.7747C184.14 34.0143 184.085 41.2256 184.168 48.4651C184.196 49.9863 183.722 50.3525 182.326 50.2398C180.763 50.1271 179.172 50.1553 177.581 50.2398C176.66 50.2961 176.409 49.9581 176.437 49.0567C176.465 44.8876 176.437 40.7749 176.437 36.634Z" fill="#262626"/>
<path d="M250.124 27.3946C250.124 25.9017 250.013 24.3805 250.152 22.8875C250.599 17.6199 254.841 13.6198 260.061 13.5072C262.517 13.4508 264.973 13.5072 267.458 13.479C268.183 13.479 268.407 13.7043 268.379 14.4367C268.323 16.4649 268.323 18.465 268.379 20.4932C268.407 21.2819 268.155 21.5354 267.374 21.5072C265.225 21.4509 263.103 21.4791 260.954 21.5072C258.805 21.5354 258.023 22.3242 258.023 24.4932C258.023 26.8876 257.995 29.282 258.051 31.6764C258.079 32.4651 257.828 32.7187 257.046 32.6905C255.037 32.6341 253.055 32.6341 251.045 32.6905C250.208 32.7187 250.04 32.3806 250.068 31.62C250.124 30.2116 250.068 28.8031 250.068 27.3946C250.068 27.3946 250.096 27.3946 250.124 27.3946Z" fill="#262626"/>
<path d="M280.102 36.7741C279.99 38.3234 280.297 40.2108 279.878 42.07C278.818 46.8024 274.938 50.0419 270.137 50.1827C267.737 50.2391 265.308 50.1827 262.88 50.2109C262.126 50.2109 261.791 50.0701 261.819 49.225C261.875 47.2249 261.875 45.1967 261.819 43.1686C261.791 42.4362 262.043 42.1826 262.768 42.2108C264.945 42.239 267.123 42.239 269.328 42.2108C271.365 42.2108 272.203 41.3375 272.203 39.2812C272.23 36.8868 272.23 34.4924 272.203 32.098C272.175 31.2248 272.454 30.9712 273.291 30.9994C275.189 31.0557 277.087 31.0557 279.013 30.9994C279.85 30.9712 280.185 31.1966 280.13 32.098C280.046 33.5628 280.102 34.9994 280.102 36.7741Z" fill="#262626"/>
<path d="M376.868 40.2899C376.868 38.9677 376.512 37.8155 375.799 36.8332C375.086 35.851 374.167 35.0577 373.042 34.4532C371.916 33.811 370.659 33.2066 369.271 32.6399C367.921 32.0733 366.552 31.4688 365.164 30.8266C363.813 30.1466 362.575 29.391 361.45 28.5599C360.324 27.7288 359.405 26.6333 358.692 25.2733C357.98 23.9133 357.623 22.3455 357.623 20.57C357.623 17.6611 358.692 15.2055 360.831 13.2033C363.007 11.2011 365.895 10.2 369.496 10.2C371.71 10.2 373.792 10.5778 375.742 11.3333C377.693 12.0889 379.231 13.09 380.357 14.3366L377.768 17.9633C375.63 15.81 372.966 14.7333 369.778 14.7333C367.602 14.7333 365.876 15.2622 364.601 16.32C363.325 17.3777 362.688 18.7944 362.688 20.57C362.688 21.8922 363.044 23.0444 363.757 24.0266C364.47 25.0088 365.389 25.8022 366.514 26.4066C367.64 27.011 368.877 27.5966 370.228 28.1633C371.616 28.6922 372.985 29.2777 374.336 29.9199C375.724 30.5621 376.98 31.2988 378.106 32.1299C379.231 32.9233 380.15 34.0188 380.863 35.4166C381.576 36.8144 381.932 38.4199 381.932 40.2332C381.932 43.4821 380.694 46.0888 378.218 48.0532C375.818 50.0177 372.779 50.9999 369.103 50.9999C366.514 50.9999 364.038 50.471 361.675 49.4132C359.311 48.3554 357.642 46.901 356.667 45.0499L359.424 41.7632C360.512 43.1988 361.956 44.351 363.757 45.2199C365.557 46.051 367.358 46.4666 369.159 46.4666C371.372 46.4666 373.21 45.9188 374.673 44.8232C376.136 43.6899 376.868 42.1788 376.868 40.2899Z" fill="#8ADF1D"/>
<path d="M390.42 50.4332H385.58L402.518 10.54H406.626L423.563 50.4332H418.442L413.378 38.4199H395.428L390.42 50.4332ZM411.521 33.8866L404.431 16.9433L397.341 33.8866H411.521Z" fill="#8ADF1D"/>
<path d="M454.516 50.4332H430.32V10.7666H435.103V45.8999H454.516V50.4332Z" fill="#8ADF1D"/>
<path d="M484.048 50.4332H461.258V10.7666H483.485V15.3H466.041V28.1066H481.797V32.6399H466.041V45.8999H484.048V50.4332Z" fill="#8ADF1D"/>
<path fill-rule="evenodd" clip-rule="evenodd" d="M504.253 27.6995C504.951 26.9889 506.097 26.9748 506.812 27.6681L514.619 35.2342L522.426 27.6681C523.141 26.9748 524.287 26.9889 524.985 27.6995C525.683 28.4101 525.668 29.5481 524.953 30.2414L515.883 39.032C515.18 39.7132 514.058 39.7132 513.355 39.032L504.285 30.2414C503.57 29.5481 503.555 28.4101 504.253 27.6995Z" fill="#262626"/>
<path fill-rule="evenodd" clip-rule="evenodd" d="M514.466 7.65001C515.481 7.65001 516.305 8.46623 516.305 9.47309V37.7201C516.305 38.7269 515.481 39.5431 514.466 39.5431C513.45 39.5431 512.627 38.7269 512.627 37.7201V9.47309C512.627 8.46623 513.45 7.65001 514.466 7.65001Z" fill="#262626"/>
<path fill-rule="evenodd" clip-rule="evenodd" d="M496.034 35.5178C497.026 35.5178 497.831 36.3337 497.831 37.3401V43.6917C497.831 45.7245 499.434 47.3517 501.435 47.3552H527.801C529.803 47.3552 531.407 45.7253 531.407 43.6962V37.3401C531.407 36.3337 532.212 35.5178 533.204 35.5178C534.196 35.5178 535 36.3337 535 37.3401V43.6962C535 47.7362 531.789 50.9999 527.801 50.9999H501.43C497.449 50.9938 494.238 47.7368 494.238 43.6917V37.3401C494.238 36.3337 495.042 35.5178 496.034 35.5178Z" fill="#262626"/>
</svg>
